<svg width="29" height="25" viewBox="0 0 29 25" fill="none" xmlns="http://www.w3.org/2000/svg">
<path fill-rule="evenodd" clip-rule="evenodd" d="M10.4266 2.23851C8.11755 2.23851 6.24573 4.11033 6.24573 6.41934V8.07672H14.6074V6.41934C14.6074 4.11033 12.7356 2.23851 10.4266 2.23851ZM16.4074 8.07672V6.41934C16.4074 3.11622 13.7297 0.438507 10.4266 0.438507C7.12344 0.438507 4.44573 3.11622 4.44573 6.41934V8.07672H1.9C0.850658 8.07672 0 8.92738 0 9.97672V22.162C0 23.2113 0.85066 24.062 1.9 24.062H18.9531C20.0025 24.062 20.8531 23.2113 20.8531 22.162V9.97672C20.8531 8.92738 20.0025 8.07672 18.9531 8.07672H16.4074ZM1.9 9.87672C1.84477 9.87672 1.8 9.92149 1.8 9.97672V22.162C1.8 22.2172 1.84477 22.262 1.9 22.262H18.9531C19.0083 22.262 19.0531 22.2172 19.0531 22.162V9.97672C19.0531 9.92149 19.0083 9.87672 18.9531 9.87672H15.5074H5.34573H1.9ZM6.61522 12.2502C6.61522 12.8529 6.04653 13.3414 5.34501 13.3414C4.6435 13.3414 4.0748 12.8529 4.0748 12.2502C4.0748 11.6476 4.6435 11.1591 5.34501 11.1591C6.04653 11.1591 6.61522 11.6476 6.61522 12.2502ZM15.5071 13.3414C16.2086 13.3414 16.7773 12.8529 16.7773 12.2502C16.7773 11.6476 16.2086 11.1591 15.5071 11.1591C14.8056 11.1591 14.2369 11.6476 14.2369 12.2502C14.2369 12.8529 14.8056 13.3414 15.5071 13.3414Z" fill="white"/>
<ellipse cx="20.8162" cy="17.5" rx="7.62125" ry="7.5" fill="#ECA5B2"/>
<path d="M20.3638 22V13.96L20.7478 14.368H18.3838V13.6H21.2278V22H20.3638Z" fill="white"/>
</svg>
